<?xml version="1.0" encoding="utf-8"?>
<!-- Generator: Adobe Illustrator 23.0.1, SVG Export Plug-In . SVG Version: 6.00 Build 0)  -->
<svg version="1.1" id="Symbol" xmlns="http://www.w3.org/2000/svg" xmlns:xlink="http://www.w3.org/1999/xlink" x="0px" y="0px"
	 viewBox="0 0 36 36" style="enable-background:new 0 0 36 36;" xml:space="preserve">
<style type="text/css">
	.st0{fill:#FFFFFF;}
</style>
<g>
	<path class="st0" d="M12.8,25.8H3.7c-1.2,0-2.5-0.9-2.5-2.5V9.6c0-2.1,1.7-2.2,2-2.2h24.9c2.4,0,2.5,1.7,2.5,2.2v8.5h-2.5V9.9l0,0
		H3.8v13.4h9V25.8z"/>
</g>
<path class="st0" d="M13.8,14.2c0-0.6-0.4-1-1-1s-1,0.4-1,1v2.6l-5.6-5.6c-0.4-0.4-1-0.4-1.4,0s-0.4,1,0,1.4l5.6,5.6H7.8
	c-0.6,0-1,0.4-1,1s0.4,1,1,1h5c0.1,0,0.3,0,0.4-0.1c0.2-0.1,0.4-0.3,0.5-0.5c0.1-0.1,0.1-0.3,0.1-0.4V14.2z"/>
<g>
	<path class="st0" d="M31.9,31.8H17.1c-1.6,0-2.9-1.3-2.9-2.8v-6.8c0-1.6,1.3-2.8,2.9-2.8h14.8c1.6,0,2.8,1.3,2.8,2.8v6.7
		C34.8,30.4,33.5,31.8,31.9,31.8z M17.1,21.7c-0.2,0-0.4,0.2-0.4,0.4v6.8c0,0.2,0.1,0.3,0.4,0.3h14.8c0.2,0,0.3-0.2,0.3-0.5V22
		c0-0.2-0.1-0.3-0.3-0.3H17.1L17.1,21.7z"/>
</g>
</svg>
