<?xml version="1.0" encoding="utf-8"?>
<!-- Generator: Adobe Illustrator 22.1.0, SVG Export Plug-In . SVG Version: 6.00 Build 0)  -->
<svg version="1.1" id="Symbol" xmlns="http://www.w3.org/2000/svg" xmlns:xlink="http://www.w3.org/1999/xlink" x="0px" y="0px"
	 viewBox="0 0 36 36" style="enable-background:new 0 0 36 36;" xml:space="preserve">
<style type="text/css">
	.st0{fill:none;stroke:#FFFFFF;stroke-width:2.5;stroke-miterlimit:10;}
	.st1{fill:none;stroke:#FFFFFF;stroke-width:2;stroke-linecap:round;stroke-miterlimit:10;}
</style>
<path class="st0" d="M13.8,24.2H3.7c0,0-1.2,0.2-1.2-1.2s0-13.3,0-13.3s-0.2-1,0.8-1c0.9,0,24.9,0,24.9,0s1.3,0.1,1.3,1s0,8,0,8"
	/>
<line class="st1" x1="5.5" y1="11.9" x2="12.8" y2="19.2"/>
<line class="st1" x1="10.6" y1="11.9" x2="5.5" y2="11.9"/>
<line class="st1" x1="5.5" y1="17.3" x2="5.5" y2="11.9"/>
<path class="st0" d="M31.9,30H17.6c-0.9,0-1.6-0.7-1.6-1.6v-6.3c0-0.9,0.7-1.6,1.6-1.6h14.3c0.9,0,1.6,0.7,1.6,1.6v6.3
	C33.5,29.2,32.8,30,31.9,30z"/>
</svg>
