<?xml version="1.0" encoding="utf-8"?>
<!-- Generator: Adobe Illustrator 23.0.1, SVG Export Plug-In . SVG Version: 6.00 Build 0)  -->
<svg version="1.1" id="Symbol" xmlns="http://www.w3.org/2000/svg" xmlns:xlink="http://www.w3.org/1999/xlink" x="0px" y="0px"
	 viewBox="0 0 36 36" style="enable-background:new 0 0 36 36;" xml:space="preserve">
<style type="text/css">
	.st0{fill:#FFFFFF;}
</style>
<g>
	<path class="st0" d="M3.5,25.5c-0.4,0-1-0.1-1.5-0.5C1.7,24.6,1.2,24,1.2,23V9.8c0-0.3,0-1,0.4-1.6c0.4-0.5,0.9-0.7,1.6-0.7h24.9
		c1.3,0.1,2.5,0.8,2.5,2.2v8h-2.5V10c-0.1,0-0.1,0-0.1,0L3.8,10v13h10v2.5h-10C3.7,25.5,3.6,25.5,3.5,25.5z"/>
</g>
<path class="st0" d="M13.5,18.5l-5.6-5.6h2.7c0.6,0,1-0.4,1-1s-0.4-1-1-1H5.5c-0.1,0-0.3,0-0.4,0.1c-0.2,0.1-0.4,0.3-0.5,0.5
	c-0.1,0.1-0.1,0.3-0.1,0.4v5.4c0,0.6,0.4,1,1,1s1-0.4,1-1v-3l5.6,5.6c0.2,0.2,0.5,0.3,0.7,0.3s0.5-0.1,0.7-0.3
	C13.9,19.5,13.9,18.9,13.5,18.5z"/>
<g>
	<path class="st0" d="M31.9,31.2H17.6c-1.6,0-2.9-1.3-2.9-2.8v-6.3c0-1.6,1.3-2.8,2.9-2.8h14.3c1.6,0,2.8,1.3,2.8,2.8v6.3
		C34.8,29.9,33.4,31.2,31.9,31.2z M17.6,21.8c-0.2,0-0.4,0.1-0.4,0.3v6.3c0,0.2,0.1,0.3,0.4,0.3h14.3c0.2,0,0.3-0.2,0.3-0.3v-6.3
		c0-0.2-0.1-0.3-0.3-0.3H17.6z"/>
</g>
</svg>
