<?xml version="1.0" encoding="utf-8"?>
<!-- Generator: Adobe Illustrator 22.1.0, SVG Export Plug-In . SVG Version: 6.00 Build 0)  -->
<svg version="1.1" id="Layer_1" xmlns="http://www.w3.org/2000/svg" xmlns:xlink="http://www.w3.org/1999/xlink" x="0px" y="0px"
	 viewBox="0 0 1024 1024" style="enable-background:new 0 0 1024 1024;" xml:space="preserve">
<style type="text/css">
	.st0{fill:url(#Backround_1_);}
	.st1{opacity:0.25;}
	.st2{opacity:0.2;}
	.st3{fill:none;stroke:#231F20;}
	.st4{fill:none;stroke:#231F20;stroke-width:2;}
	.st5{opacity:0.18;}
	.st6{fill:none;stroke:#231F20;stroke-width:3;}
	.st7{fill:none;stroke:#231F20;stroke-width:4;}
	.st8{opacity:0.16;}
	.st9{fill:none;stroke:#231F20;stroke-width:5;}
	.st10{fill:none;stroke:#231F20;stroke-width:6;}
	.st11{opacity:0.14;}
	.st12{fill:none;stroke:#231F20;stroke-width:7;}
	.st13{fill:none;stroke:#231F20;stroke-width:8;}
	.st14{opacity:0.12;}
	.st15{fill:none;stroke:#231F20;stroke-width:9;}
	.st16{fill:none;stroke:#231F20;stroke-width:10;}
	.st17{opacity:0.1;}
	.st18{fill:none;stroke:#231F20;stroke-width:11;}
	.st19{fill:none;stroke:#231F20;stroke-width:12;}
	.st20{opacity:9.000000e-02;}
	.st21{fill:none;stroke:#231F20;stroke-width:13;}
	.st22{fill:none;stroke:#231F20;stroke-width:14;}
	.st23{opacity:8.000000e-02;}
	.st24{fill:none;stroke:#231F20;stroke-width:15;}
	.st25{fill:none;stroke:#231F20;stroke-width:16;}
	.st26{opacity:7.000000e-02;}
	.st27{fill:none;stroke:#231F20;stroke-width:17;}
	.st28{fill:none;stroke:#231F20;stroke-width:18;}
	.st29{opacity:6.000000e-02;}
	.st30{fill:none;stroke:#231F20;stroke-width:19;}
	.st31{fill:none;stroke:#231F20;stroke-width:20;}
	.st32{opacity:5.000000e-02;}
	.st33{fill:none;stroke:#231F20;stroke-width:21;}
	.st34{fill:none;stroke:#231F20;stroke-width:22;}
	.st35{opacity:4.000000e-02;}
	.st36{fill:none;stroke:#231F20;stroke-width:23;}
	.st37{fill:none;stroke:#231F20;stroke-width:24;}
	.st38{opacity:3.000000e-02;}
	.st39{fill:none;stroke:#231F20;stroke-width:25;}
	.st40{fill:none;stroke:#231F20;stroke-width:26;}
	.st41{opacity:2.000000e-02;}
	.st42{fill:none;stroke:#231F20;stroke-width:27;}
	.st43{fill:none;stroke:#231F20;stroke-width:28;}
	.st44{opacity:1.000000e-02;}
	.st45{fill:none;stroke:#231F20;stroke-width:29;}
	.st46{fill:none;stroke:#231F20;stroke-width:30;}
	.st47{fill:none;stroke:#FFFFFF;stroke-width:32;stroke-miterlimit:10;}
	.st48{fill:none;stroke:#FFFFFF;stroke-width:32;stroke-linecap:round;stroke-miterlimit:10;}
</style>
<linearGradient id="Backround_1_" gradientUnits="userSpaceOnUse" x1="193.802" y1="830.1981" x2="830.1981" y2="193.802" gradientTransform="matrix(1 0 0 -1 0 1024)">
	<stop  offset="1.179610e-03" style="stop-color:#0671D9"/>
	<stop  offset="1" style="stop-color:#1B557C"/>
</linearGradient>
<circle id="Backround" class="st0" cx="512" cy="512" r="450"/>
<g id="Shadow" class="st1">
	<g>
		<g>
			<path d="M253,619.9c-5.6,0-14.3-1.2-21.8-7.5c-5.5-4.6-12.1-13.5-12.1-29.7V339.9c-0.4-4.3-0.8-15.5,6.6-24.3
				c3.7-4.3,10.5-9.5,22.1-9.5h458.3h0.3c1.4,0.1,8.8,0.5,16.6,3.8c13.1,5.4,20.7,16,20.7,29.1v146.5H715V338.9c0-0.5,0-1.3-2.9-2.4
				c-2.9-1.2-6-1.5-6.8-1.6H247.9h-0.1c-0.1,0.7-0.1,1.5,0,1.7l0.2,1.2v245c0,4.5,0.9,6.8,1.7,7.6c0.8,0.7,2.9,0.9,4,0.8l1.4-0.4
				l1,0.1h185.4v28.8H256.9C255.9,619.8,254.6,619.9,253,619.9z M253.4,591.1L253.4,591.1L253.4,591.1z"/>
		</g>
		<g>
			<path d="M422.5,528c-3.7,0-7.5-1.4-10.3-4.3L279,388.4c-5.6-5.7-5.5-14.8,0.2-20.3c5.7-5.6,14.8-5.5,20.3,0.2l133.2,135.3
				c5.6,5.7,5.5,14.8-0.2,20.3C429.8,526.7,426.1,528,422.5,528z"/>
		</g>
		<g>
			<path d="M422.5,528h-94.2c-7.9,0-14.4-6.5-14.4-14.4s6.5-14.4,14.4-14.4h94.2c7.9,0,14.4,6.5,14.4,14.4S430.5,528,422.5,528z"/>
		</g>
		<g>
			<path d="M422.5,528c-7.9,0-14.4-6.5-14.4-14.4V413.3c0-7.9,6.5-14.4,14.4-14.4c7.9,0,14.4,6.5,14.4,14.4v100.4
				C436.9,521.5,430.5,528,422.5,528z"/>
		</g>
		<g>
			<path d="M773.8,725.6H510.6c-24.4,0-44.2-19.8-44.2-44.2V565.9c0-24.4,19.8-44.2,44.2-44.2h263.2c24.4,0,44.2,19.8,44.2,44.2
				v115.5C818,705.7,798.2,725.6,773.8,725.6z M510.6,550.5c-8.5,0-15.4,6.9-15.4,15.4v115.5c0,8.5,6.9,15.4,15.4,15.4h263.2
				c8.5,0,15.4-6.9,15.4-15.4V565.9c0-8.5-6.9-15.4-15.4-15.4H510.6L510.6,550.5z"/>
		</g>
	</g>
	<g class="st2">
		<g>
			<path class="st3" d="M253,619.9c-5.6,0-14.3-1.2-21.8-7.5c-5.5-4.6-12.1-13.5-12.1-29.7V339.9c-0.4-4.3-0.8-15.5,6.6-24.3
				c3.7-4.3,10.5-9.5,22.1-9.5h458.3h0.3c1.4,0.1,8.8,0.5,16.6,3.8c13.1,5.4,20.7,16,20.7,29.1v146.5H715V338.9c0-0.5,0-1.3-2.9-2.4
				c-2.9-1.2-6-1.5-6.8-1.6H247.9h-0.1c-0.1,0.7-0.1,1.5,0,1.7l0.2,1.2v245c0,4.5,0.9,6.8,1.7,7.6c0.8,0.7,2.9,0.9,4,0.8l1.4-0.4
				l1,0.1h185.4v28.8H256.9C255.9,619.8,254.6,619.9,253,619.9z M253.4,591.1L253.4,591.1L253.4,591.1z"/>
		</g>
		<g>
			<path class="st3" d="M422.5,528c-3.7,0-7.5-1.4-10.3-4.3L279,388.4c-5.6-5.7-5.5-14.8,0.2-20.3c5.7-5.6,14.8-5.5,20.3,0.2
				l133.2,135.3c5.6,5.7,5.5,14.8-0.2,20.3C429.8,526.7,426.1,528,422.5,528z"/>
		</g>
		<g>
			<path class="st3" d="M422.5,528h-94.2c-7.9,0-14.4-6.5-14.4-14.4s6.5-14.4,14.4-14.4h94.2c7.9,0,14.4,6.5,14.4,14.4
				S430.5,528,422.5,528z"/>
		</g>
		<g>
			<path class="st3" d="M422.5,528c-7.9,0-14.4-6.5-14.4-14.4V413.3c0-7.9,6.5-14.4,14.4-14.4c7.9,0,14.4,6.5,14.4,14.4v100.4
				C436.9,521.5,430.5,528,422.5,528z"/>
		</g>
		<g>
			<path class="st3" d="M773.8,725.6H510.6c-24.4,0-44.2-19.8-44.2-44.2V565.9c0-24.4,19.8-44.2,44.2-44.2h263.2
				c24.4,0,44.2,19.8,44.2,44.2v115.5C818,705.7,798.2,725.6,773.8,725.6z M510.6,550.5c-8.5,0-15.4,6.9-15.4,15.4v115.5
				c0,8.5,6.9,15.4,15.4,15.4h263.2c8.5,0,15.4-6.9,15.4-15.4V565.9c0-8.5-6.9-15.4-15.4-15.4H510.6L510.6,550.5z"/>
		</g>
	</g>
	<g class="st2">
		<g>
			<path class="st4" d="M253,619.9c-5.6,0-14.3-1.2-21.8-7.5c-5.5-4.6-12.1-13.5-12.1-29.7V339.9c-0.4-4.3-0.8-15.5,6.6-24.3
				c3.7-4.3,10.5-9.5,22.1-9.5h458.3h0.3c1.4,0.1,8.8,0.5,16.6,3.8c13.1,5.4,20.7,16,20.7,29.1v146.5H715V338.9c0-0.5,0-1.3-2.9-2.4
				c-2.9-1.2-6-1.5-6.8-1.6H247.9h-0.1c-0.1,0.7-0.1,1.5,0,1.7l0.2,1.2v245c0,4.5,0.9,6.8,1.7,7.6c0.8,0.7,2.9,0.9,4,0.8l1.4-0.4
				l1,0.1h185.4v28.8H256.9C255.9,619.8,254.6,619.9,253,619.9z M253.4,591.1L253.4,591.1L253.4,591.1z"/>
		</g>
		<g>
			<path class="st4" d="M422.5,528c-3.7,0-7.5-1.4-10.3-4.3L279,388.4c-5.6-5.7-5.5-14.8,0.2-20.3c5.7-5.6,14.8-5.5,20.3,0.2
				l133.2,135.3c5.6,5.7,5.5,14.8-0.2,20.3C429.8,526.7,426.1,528,422.5,528z"/>
		</g>
		<g>
			<path class="st4" d="M422.5,528h-94.2c-7.9,0-14.4-6.5-14.4-14.4s6.5-14.4,14.4-14.4h94.2c7.9,0,14.4,6.5,14.4,14.4
				S430.5,528,422.5,528z"/>
		</g>
		<g>
			<path class="st4" d="M422.5,528c-7.9,0-14.4-6.5-14.4-14.4V413.3c0-7.9,6.5-14.4,14.4-14.4c7.9,0,14.4,6.5,14.4,14.4v100.4
				C436.9,521.5,430.5,528,422.5,528z"/>
		</g>
		<g>
			<path class="st4" d="M773.8,725.6H510.6c-24.4,0-44.2-19.8-44.2-44.2V565.9c0-24.4,19.8-44.2,44.2-44.2h263.2
				c24.4,0,44.2,19.8,44.2,44.2v115.5C818,705.7,798.2,725.6,773.8,725.6z M510.6,550.5c-8.5,0-15.4,6.9-15.4,15.4v115.5
				c0,8.5,6.9,15.4,15.4,15.4h263.2c8.5,0,15.4-6.9,15.4-15.4V565.9c0-8.5-6.9-15.4-15.4-15.4H510.6L510.6,550.5z"/>
		</g>
	</g>
	<g class="st5">
		<g>
			<path class="st6" d="M253,619.9c-5.6,0-14.3-1.2-21.8-7.5c-5.5-4.6-12.1-13.5-12.1-29.7V339.9c-0.4-4.3-0.8-15.5,6.6-24.3
				c3.7-4.3,10.5-9.5,22.1-9.5h458.3h0.3c1.4,0.1,8.8,0.5,16.6,3.8c13.1,5.4,20.7,16,20.7,29.1v146.5H715V338.9c0-0.5,0-1.3-2.9-2.4
				c-2.9-1.2-6-1.5-6.8-1.6H247.9h-0.1c-0.1,0.7-0.1,1.5,0,1.7l0.2,1.2v245c0,4.5,0.9,6.8,1.7,7.6c0.8,0.7,2.9,0.9,4,0.8l1.4-0.4
				l1,0.1h185.4v28.8H256.9C255.9,619.8,254.6,619.9,253,619.9z M253.4,591.1L253.4,591.1L253.4,591.1z"/>
		</g>
		<g>
			<path class="st6" d="M422.5,528c-3.7,0-7.5-1.4-10.3-4.3L279,388.4c-5.6-5.7-5.5-14.8,0.2-20.3c5.7-5.6,14.8-5.5,20.3,0.2
				l133.2,135.3c5.6,5.7,5.5,14.8-0.2,20.3C429.8,526.7,426.1,528,422.5,528z"/>
		</g>
		<g>
			<path class="st6" d="M422.5,528h-94.2c-7.9,0-14.4-6.5-14.4-14.4s6.5-14.4,14.4-14.4h94.2c7.9,0,14.4,6.5,14.4,14.4
				S430.5,528,422.5,528z"/>
		</g>
		<g>
			<path class="st6" d="M422.5,528c-7.9,0-14.4-6.5-14.4-14.4V413.3c0-7.9,6.5-14.4,14.4-14.4c7.9,0,14.4,6.5,14.4,14.4v100.4
				C436.9,521.5,430.5,528,422.5,528z"/>
		</g>
		<g>
			<path class="st6" d="M773.8,725.6H510.6c-24.4,0-44.2-19.8-44.2-44.2V565.9c0-24.4,19.8-44.2,44.2-44.2h263.2
				c24.4,0,44.2,19.8,44.2,44.2v115.5C818,705.7,798.2,725.6,773.8,725.6z M510.6,550.5c-8.5,0-15.4,6.9-15.4,15.4v115.5
				c0,8.5,6.9,15.4,15.4,15.4h263.2c8.5,0,15.4-6.9,15.4-15.4V565.9c0-8.5-6.9-15.4-15.4-15.4H510.6L510.6,550.5z"/>
		</g>
	</g>
	<g class="st5">
		<g>
			<path class="st7" d="M253,619.9c-5.6,0-14.3-1.2-21.8-7.5c-5.5-4.6-12.1-13.5-12.1-29.7V339.9c-0.4-4.3-0.8-15.5,6.6-24.3
				c3.7-4.3,10.5-9.5,22.1-9.5h458.3h0.3c1.4,0.1,8.8,0.5,16.6,3.8c13.1,5.4,20.7,16,20.7,29.1v146.5H715V338.9c0-0.5,0-1.3-2.9-2.4
				c-2.9-1.2-6-1.5-6.8-1.6H247.9h-0.1c-0.1,0.7-0.1,1.5,0,1.7l0.2,1.2v245c0,4.5,0.9,6.8,1.7,7.6c0.8,0.7,2.9,0.9,4,0.8l1.4-0.4
				l1,0.1h185.4v28.8H256.9C255.9,619.8,254.6,619.9,253,619.9z M253.4,591.1L253.4,591.1L253.4,591.1z"/>
		</g>
		<g>
			<path class="st7" d="M422.5,528c-3.7,0-7.5-1.4-10.3-4.3L279,388.4c-5.6-5.7-5.5-14.8,0.2-20.3c5.7-5.6,14.8-5.5,20.3,0.2
				l133.2,135.3c5.6,5.7,5.5,14.8-0.2,20.3C429.8,526.7,426.1,528,422.5,528z"/>
		</g>
		<g>
			<path class="st7" d="M422.5,528h-94.2c-7.9,0-14.4-6.5-14.4-14.4s6.5-14.4,14.4-14.4h94.2c7.9,0,14.4,6.5,14.4,14.4
				S430.5,528,422.5,528z"/>
		</g>
		<g>
			<path class="st7" d="M422.5,528c-7.9,0-14.4-6.5-14.4-14.4V413.3c0-7.9,6.5-14.4,14.4-14.4c7.9,0,14.4,6.5,14.4,14.4v100.4
				C436.9,521.5,430.5,528,422.5,528z"/>
		</g>
		<g>
			<path class="st7" d="M773.8,725.6H510.6c-24.4,0-44.2-19.8-44.2-44.2V565.9c0-24.4,19.8-44.2,44.2-44.2h263.2
				c24.4,0,44.2,19.8,44.2,44.2v115.5C818,705.7,798.2,725.6,773.8,725.6z M510.6,550.5c-8.5,0-15.4,6.9-15.4,15.4v115.5
				c0,8.5,6.9,15.4,15.4,15.4h263.2c8.5,0,15.4-6.9,15.4-15.4V565.9c0-8.5-6.9-15.4-15.4-15.4H510.6L510.6,550.5z"/>
		</g>
	</g>
	<g class="st8">
		<g>
			<path class="st9" d="M253,619.9c-5.6,0-14.3-1.2-21.8-7.5c-5.5-4.6-12.1-13.5-12.1-29.7V339.9c-0.4-4.3-0.8-15.5,6.6-24.3
				c3.7-4.3,10.5-9.5,22.1-9.5h458.3h0.3c1.4,0.1,8.8,0.5,16.6,3.8c13.1,5.4,20.7,16,20.7,29.1v146.5H715V338.9c0-0.5,0-1.3-2.9-2.4
				c-2.9-1.2-6-1.5-6.8-1.6H247.9h-0.1c-0.1,0.7-0.1,1.5,0,1.7l0.2,1.2v245c0,4.5,0.9,6.8,1.7,7.6c0.8,0.7,2.9,0.9,4,0.8l1.4-0.4
				l1,0.1h185.4v28.8H256.9C255.9,619.8,254.6,619.9,253,619.9z M253.4,591.1L253.4,591.1L253.4,591.1z"/>
		</g>
		<g>
			<path class="st9" d="M422.5,528c-3.7,0-7.5-1.4-10.3-4.3L279,388.4c-5.6-5.7-5.5-14.8,0.2-20.3c5.7-5.6,14.8-5.5,20.3,0.2
				l133.2,135.3c5.6,5.7,5.5,14.8-0.2,20.3C429.8,526.7,426.1,528,422.5,528z"/>
		</g>
		<g>
			<path class="st9" d="M422.5,528h-94.2c-7.9,0-14.4-6.5-14.4-14.4s6.5-14.4,14.4-14.4h94.2c7.9,0,14.4,6.5,14.4,14.4
				S430.5,528,422.5,528z"/>
		</g>
		<g>
			<path class="st9" d="M422.5,528c-7.9,0-14.4-6.5-14.4-14.4V413.3c0-7.9,6.5-14.4,14.4-14.4c7.9,0,14.4,6.5,14.4,14.4v100.4
				C436.9,521.5,430.5,528,422.5,528z"/>
		</g>
		<g>
			<path class="st9" d="M773.8,725.6H510.6c-24.4,0-44.2-19.8-44.2-44.2V565.9c0-24.4,19.8-44.2,44.2-44.2h263.2
				c24.4,0,44.2,19.8,44.2,44.2v115.5C818,705.7,798.2,725.6,773.8,725.6z M510.6,550.5c-8.5,0-15.4,6.9-15.4,15.4v115.5
				c0,8.5,6.9,15.4,15.4,15.4h263.2c8.5,0,15.4-6.9,15.4-15.4V565.9c0-8.5-6.9-15.4-15.4-15.4H510.6L510.6,550.5z"/>
		</g>
	</g>
	<g class="st8">
		<g>
			<path class="st10" d="M253,619.9c-5.6,0-14.3-1.2-21.8-7.5c-5.5-4.6-12.1-13.5-12.1-29.7V339.9c-0.4-4.3-0.8-15.5,6.6-24.3
				c3.7-4.3,10.5-9.5,22.1-9.5h458.3h0.3c1.4,0.1,8.8,0.5,16.6,3.8c13.1,5.4,20.7,16,20.7,29.1v146.5H715V338.9c0-0.5,0-1.3-2.9-2.4
				c-2.9-1.2-6-1.5-6.8-1.6H247.9h-0.1c-0.1,0.7-0.1,1.5,0,1.7l0.2,1.2v245c0,4.5,0.9,6.8,1.7,7.6c0.8,0.7,2.9,0.9,4,0.8l1.4-0.4
				l1,0.1h185.4v28.8H256.9C255.9,619.8,254.6,619.9,253,619.9z M253.4,591.1L253.4,591.1L253.4,591.1z"/>
		</g>
		<g>
			<path class="st10" d="M422.5,528c-3.7,0-7.5-1.4-10.3-4.3L279,388.4c-5.6-5.7-5.5-14.8,0.2-20.3c5.7-5.6,14.8-5.5,20.3,0.2
				l133.2,135.3c5.6,5.7,5.5,14.8-0.2,20.3C429.8,526.7,426.1,528,422.5,528z"/>
		</g>
		<g>
			<path class="st10" d="M422.5,528h-94.2c-7.9,0-14.4-6.5-14.4-14.4s6.5-14.4,14.4-14.4h94.2c7.9,0,14.4,6.5,14.4,14.4
				S430.5,528,422.5,528z"/>
		</g>
		<g>
			<path class="st10" d="M422.5,528c-7.9,0-14.4-6.5-14.4-14.4V413.3c0-7.9,6.5-14.4,14.4-14.4c7.9,0,14.4,6.5,14.4,14.4v100.4
				C436.9,521.5,430.5,528,422.5,528z"/>
		</g>
		<g>
			<path class="st10" d="M773.8,725.6H510.6c-24.4,0-44.2-19.8-44.2-44.2V565.9c0-24.4,19.8-44.2,44.2-44.2h263.2
				c24.4,0,44.2,19.8,44.2,44.2v115.5C818,705.7,798.2,725.6,773.8,725.6z M510.6,550.5c-8.5,0-15.4,6.9-15.4,15.4v115.5
				c0,8.5,6.9,15.4,15.4,15.4h263.2c8.5,0,15.4-6.9,15.4-15.4V565.9c0-8.5-6.9-15.4-15.4-15.4H510.6L510.6,550.5z"/>
		</g>
	</g>
	<g class="st11">
		<g>
			<path class="st12" d="M253,619.9c-5.6,0-14.3-1.2-21.8-7.5c-5.5-4.6-12.1-13.5-12.1-29.7V339.9c-0.4-4.3-0.8-15.5,6.6-24.3
				c3.7-4.3,10.5-9.5,22.1-9.5h458.3h0.3c1.4,0.1,8.8,0.5,16.6,3.8c13.1,5.4,20.7,16,20.7,29.1v146.5H715V338.9c0-0.5,0-1.3-2.9-2.4
				c-2.9-1.2-6-1.5-6.8-1.6H247.9h-0.1c-0.1,0.7-0.1,1.5,0,1.7l0.2,1.2v245c0,4.5,0.9,6.8,1.7,7.6c0.8,0.7,2.9,0.9,4,0.8l1.4-0.4
				l1,0.1h185.4v28.8H256.9C255.9,619.8,254.6,619.9,253,619.9z M253.4,591.1L253.4,591.1L253.4,591.1z"/>
		</g>
		<g>
			<path class="st12" d="M422.5,528c-3.7,0-7.5-1.4-10.3-4.3L279,388.4c-5.6-5.7-5.5-14.8,0.2-20.3c5.7-5.6,14.8-5.5,20.3,0.2
				l133.2,135.3c5.6,5.7,5.5,14.8-0.2,20.3C429.8,526.7,426.1,528,422.5,528z"/>
		</g>
		<g>
			<path class="st12" d="M422.5,528h-94.2c-7.9,0-14.4-6.5-14.4-14.4s6.5-14.4,14.4-14.4h94.2c7.9,0,14.4,6.5,14.4,14.4
				S430.5,528,422.5,528z"/>
		</g>
		<g>
			<path class="st12" d="M422.5,528c-7.9,0-14.4-6.5-14.4-14.4V413.3c0-7.9,6.5-14.4,14.4-14.4c7.9,0,14.4,6.5,14.4,14.4v100.4
				C436.9,521.5,430.5,528,422.5,528z"/>
		</g>
		<g>
			<path class="st12" d="M773.8,725.6H510.6c-24.4,0-44.2-19.8-44.2-44.2V565.9c0-24.4,19.8-44.2,44.2-44.2h263.2
				c24.4,0,44.2,19.8,44.2,44.2v115.5C818,705.7,798.2,725.6,773.8,725.6z M510.6,550.5c-8.5,0-15.4,6.9-15.4,15.4v115.5
				c0,8.5,6.9,15.4,15.4,15.4h263.2c8.5,0,15.4-6.9,15.4-15.4V565.9c0-8.5-6.9-15.4-15.4-15.4H510.6L510.6,550.5z"/>
		</g>
	</g>
	<g class="st11">
		<g>
			<path class="st13" d="M253,619.9c-5.6,0-14.3-1.2-21.8-7.5c-5.5-4.6-12.1-13.5-12.1-29.7V339.9c-0.4-4.3-0.8-15.5,6.6-24.3
				c3.7-4.3,10.5-9.5,22.1-9.5h458.3h0.3c1.4,0.1,8.8,0.5,16.6,3.8c13.1,5.4,20.7,16,20.7,29.1v146.5H715V338.9c0-0.5,0-1.3-2.9-2.4
				c-2.9-1.2-6-1.5-6.8-1.6H247.9h-0.1c-0.1,0.7-0.1,1.5,0,1.7l0.2,1.2v245c0,4.5,0.9,6.8,1.7,7.6c0.8,0.7,2.9,0.9,4,0.8l1.4-0.4
				l1,0.1h185.4v28.8H256.9C255.9,619.8,254.6,619.9,253,619.9z M253.4,591.1L253.4,591.1L253.4,591.1z"/>
		</g>
		<g>
			<path class="st13" d="M422.5,528c-3.7,0-7.5-1.4-10.3-4.3L279,388.4c-5.6-5.7-5.5-14.8,0.2-20.3c5.7-5.6,14.8-5.5,20.3,0.2
				l133.2,135.3c5.6,5.7,5.5,14.8-0.2,20.3C429.8,526.7,426.1,528,422.5,528z"/>
		</g>
		<g>
			<path class="st13" d="M422.5,528h-94.2c-7.9,0-14.4-6.5-14.4-14.4s6.5-14.4,14.4-14.4h94.2c7.9,0,14.4,6.5,14.4,14.4
				S430.5,528,422.5,528z"/>
		</g>
		<g>
			<path class="st13" d="M422.5,528c-7.9,0-14.4-6.5-14.4-14.4V413.3c0-7.9,6.5-14.4,14.4-14.4c7.9,0,14.4,6.5,14.4,14.4v100.4
				C436.9,521.5,430.5,528,422.5,528z"/>
		</g>
		<g>
			<path class="st13" d="M773.8,725.6H510.6c-24.4,0-44.2-19.8-44.2-44.2V565.9c0-24.4,19.8-44.2,44.2-44.2h263.2
				c24.4,0,44.2,19.8,44.2,44.2v115.5C818,705.7,798.2,725.6,773.8,725.6z M510.6,550.5c-8.5,0-15.4,6.9-15.4,15.4v115.5
				c0,8.5,6.9,15.4,15.4,15.4h263.2c8.5,0,15.4-6.9,15.4-15.4V565.9c0-8.5-6.9-15.4-15.4-15.4H510.6L510.6,550.5z"/>
		</g>
	</g>
	<g class="st14">
		<g>
			<path class="st15" d="M253,619.9c-5.6,0-14.3-1.2-21.8-7.5c-5.5-4.6-12.1-13.5-12.1-29.7V339.9c-0.4-4.3-0.8-15.5,6.6-24.3
				c3.7-4.3,10.5-9.5,22.1-9.5h458.3h0.3c1.4,0.1,8.8,0.5,16.6,3.8c13.1,5.4,20.7,16,20.7,29.1v146.5H715V338.9c0-0.5,0-1.3-2.9-2.4
				c-2.9-1.2-6-1.5-6.8-1.6H247.9h-0.1c-0.1,0.7-0.1,1.5,0,1.7l0.2,1.2v245c0,4.5,0.9,6.8,1.7,7.6c0.8,0.7,2.9,0.9,4,0.8l1.4-0.4
				l1,0.1h185.4v28.8H256.9C255.9,619.8,254.6,619.9,253,619.9z M253.4,591.1L253.4,591.1L253.4,591.1z"/>
		</g>
		<g>
			<path class="st15" d="M422.5,528c-3.7,0-7.5-1.4-10.3-4.3L279,388.4c-5.6-5.7-5.5-14.8,0.2-20.3c5.7-5.6,14.8-5.5,20.3,0.2
				l133.2,135.3c5.6,5.7,5.5,14.8-0.2,20.3C429.8,526.7,426.1,528,422.5,528z"/>
		</g>
		<g>
			<path class="st15" d="M422.5,528h-94.2c-7.9,0-14.4-6.5-14.4-14.4s6.5-14.4,14.4-14.4h94.2c7.9,0,14.4,6.5,14.4,14.4
				S430.5,528,422.5,528z"/>
		</g>
		<g>
			<path class="st15" d="M422.5,528c-7.9,0-14.4-6.5-14.4-14.4V413.3c0-7.9,6.5-14.4,14.4-14.4c7.9,0,14.4,6.5,14.4,14.4v100.4
				C436.9,521.5,430.5,528,422.5,528z"/>
		</g>
		<g>
			<path class="st15" d="M773.8,725.6H510.6c-24.4,0-44.2-19.8-44.2-44.2V565.9c0-24.4,19.8-44.2,44.2-44.2h263.2
				c24.4,0,44.2,19.8,44.2,44.2v115.5C818,705.7,798.2,725.6,773.8,725.6z M510.6,550.5c-8.5,0-15.4,6.9-15.4,15.4v115.5
				c0,8.5,6.9,15.4,15.4,15.4h263.2c8.5,0,15.4-6.9,15.4-15.4V565.9c0-8.5-6.9-15.4-15.4-15.4H510.6L510.6,550.5z"/>
		</g>
	</g>
	<g class="st14">
		<g>
			<path class="st16" d="M253,619.9c-5.6,0-14.3-1.2-21.8-7.5c-5.5-4.6-12.1-13.5-12.1-29.7V339.9c-0.4-4.3-0.8-15.5,6.6-24.3
				c3.7-4.3,10.5-9.5,22.1-9.5h458.3h0.3c1.4,0.1,8.8,0.5,16.6,3.8c13.1,5.4,20.7,16,20.7,29.1v146.5H715V338.9c0-0.5,0-1.3-2.9-2.4
				c-2.9-1.2-6-1.5-6.8-1.6H247.9h-0.1c-0.1,0.7-0.1,1.5,0,1.7l0.2,1.2v245c0,4.5,0.9,6.8,1.7,7.6c0.8,0.7,2.9,0.9,4,0.8l1.4-0.4
				l1,0.1h185.4v28.8H256.9C255.9,619.8,254.6,619.9,253,619.9z M253.4,591.1L253.4,591.1L253.4,591.1z"/>
		</g>
		<g>
			<path class="st16" d="M422.5,528c-3.7,0-7.5-1.4-10.3-4.3L279,388.4c-5.6-5.7-5.5-14.8,0.2-20.3c5.7-5.6,14.8-5.5,20.3,0.2
				l133.2,135.3c5.6,5.7,5.5,14.8-0.2,20.3C429.8,526.7,426.1,528,422.5,528z"/>
		</g>
		<g>
			<path class="st16" d="M422.5,528h-94.2c-7.9,0-14.4-6.5-14.4-14.4s6.5-14.4,14.4-14.4h94.2c7.9,0,14.4,6.5,14.4,14.4
				S430.5,528,422.5,528z"/>
		</g>
		<g>
			<path class="st16" d="M422.5,528c-7.9,0-14.4-6.5-14.4-14.4V413.3c0-7.9,6.5-14.4,14.4-14.4c7.9,0,14.4,6.5,14.4,14.4v100.4
				C436.9,521.5,430.5,528,422.5,528z"/>
		</g>
		<g>
			<path class="st16" d="M773.8,725.6H510.6c-24.4,0-44.2-19.8-44.2-44.2V565.9c0-24.4,19.8-44.2,44.2-44.2h263.2
				c24.4,0,44.2,19.8,44.2,44.2v115.5C818,705.7,798.2,725.6,773.8,725.6z M510.6,550.5c-8.5,0-15.4,6.9-15.4,15.4v115.5
				c0,8.5,6.9,15.4,15.4,15.4h263.2c8.5,0,15.4-6.9,15.4-15.4V565.9c0-8.5-6.9-15.4-15.4-15.4H510.6L510.6,550.5z"/>
		</g>
	</g>
	<g class="st17">
		<g>
			<path class="st18" d="M253,619.9c-5.6,0-14.3-1.2-21.8-7.5c-5.5-4.6-12.1-13.5-12.1-29.7V339.9c-0.4-4.3-0.8-15.5,6.6-24.3
				c3.7-4.3,10.5-9.5,22.1-9.5h458.3h0.3c1.4,0.1,8.8,0.5,16.6,3.8c13.1,5.4,20.7,16,20.7,29.1v146.5H715V338.9c0-0.5,0-1.3-2.9-2.4
				c-2.9-1.2-6-1.5-6.8-1.6H247.9h-0.1c-0.1,0.7-0.1,1.5,0,1.7l0.2,1.2v245c0,4.5,0.9,6.8,1.7,7.6c0.8,0.7,2.9,0.9,4,0.8l1.4-0.4
				l1,0.1h185.4v28.8H256.9C255.9,619.8,254.6,619.9,253,619.9z M253.4,591.1L253.4,591.1L253.4,591.1z"/>
		</g>
		<g>
			<path class="st18" d="M422.5,528c-3.7,0-7.5-1.4-10.3-4.3L279,388.4c-5.6-5.7-5.5-14.8,0.2-20.3c5.7-5.6,14.8-5.5,20.3,0.2
				l133.2,135.3c5.6,5.7,5.5,14.8-0.2,20.3C429.8,526.7,426.1,528,422.5,528z"/>
		</g>
		<g>
			<path class="st18" d="M422.5,528h-94.2c-7.9,0-14.4-6.5-14.4-14.4s6.5-14.4,14.4-14.4h94.2c7.9,0,14.4,6.5,14.4,14.4
				S430.5,528,422.5,528z"/>
		</g>
		<g>
			<path class="st18" d="M422.5,528c-7.9,0-14.4-6.5-14.4-14.4V413.3c0-7.9,6.5-14.4,14.4-14.4c7.9,0,14.4,6.5,14.4,14.4v100.4
				C436.9,521.5,430.5,528,422.5,528z"/>
		</g>
		<g>
			<path class="st18" d="M773.8,725.6H510.6c-24.4,0-44.2-19.8-44.2-44.2V565.9c0-24.4,19.8-44.2,44.2-44.2h263.2
				c24.4,0,44.2,19.8,44.2,44.2v115.5C818,705.7,798.2,725.6,773.8,725.6z M510.6,550.5c-8.5,0-15.4,6.9-15.4,15.4v115.5
				c0,8.5,6.9,15.4,15.4,15.4h263.2c8.5,0,15.4-6.9,15.4-15.4V565.9c0-8.5-6.9-15.4-15.4-15.4H510.6L510.6,550.5z"/>
		</g>
	</g>
	<g class="st17">
		<g>
			<path class="st19" d="M253,619.9c-5.6,0-14.3-1.2-21.8-7.5c-5.5-4.6-12.1-13.5-12.1-29.7V339.9c-0.4-4.3-0.8-15.5,6.6-24.3
				c3.7-4.3,10.5-9.5,22.1-9.5h458.3h0.3c1.4,0.1,8.8,0.5,16.6,3.8c13.1,5.4,20.7,16,20.7,29.1v146.5H715V338.9c0-0.5,0-1.3-2.9-2.4
				c-2.9-1.2-6-1.5-6.8-1.6H247.9h-0.1c-0.1,0.7-0.1,1.5,0,1.7l0.2,1.2v245c0,4.5,0.9,6.8,1.7,7.6c0.8,0.7,2.9,0.9,4,0.8l1.4-0.4
				l1,0.1h185.4v28.8H256.9C255.9,619.8,254.6,619.9,253,619.9z M253.4,591.1L253.4,591.1L253.4,591.1z"/>
		</g>
		<g>
			<path class="st19" d="M422.5,528c-3.7,0-7.5-1.4-10.3-4.3L279,388.4c-5.6-5.7-5.5-14.8,0.2-20.3c5.7-5.6,14.8-5.5,20.3,0.2
				l133.2,135.3c5.6,5.7,5.5,14.8-0.2,20.3C429.8,526.7,426.1,528,422.5,528z"/>
		</g>
		<g>
			<path class="st19" d="M422.5,528h-94.2c-7.9,0-14.4-6.5-14.4-14.4s6.5-14.4,14.4-14.4h94.2c7.9,0,14.4,6.5,14.4,14.4
				S430.5,528,422.5,528z"/>
		</g>
		<g>
			<path class="st19" d="M422.5,528c-7.9,0-14.4-6.5-14.4-14.4V413.3c0-7.9,6.5-14.4,14.4-14.4c7.9,0,14.4,6.5,14.4,14.4v100.4
				C436.9,521.5,430.5,528,422.5,528z"/>
		</g>
		<g>
			<path class="st19" d="M773.8,725.6H510.6c-24.4,0-44.2-19.8-44.2-44.2V565.9c0-24.4,19.8-44.2,44.2-44.2h263.2
				c24.4,0,44.2,19.8,44.2,44.2v115.5C818,705.7,798.2,725.6,773.8,725.6z M510.6,550.5c-8.5,0-15.4,6.9-15.4,15.4v115.5
				c0,8.5,6.9,15.4,15.4,15.4h263.2c8.5,0,15.4-6.9,15.4-15.4V565.9c0-8.5-6.9-15.4-15.4-15.4H510.6L510.6,550.5z"/>
		</g>
	</g>
	<g class="st20">
		<g>
			<path class="st21" d="M253,619.9c-5.6,0-14.3-1.2-21.8-7.5c-5.5-4.6-12.1-13.5-12.1-29.7V339.9c-0.4-4.3-0.8-15.5,6.6-24.3
				c3.7-4.3,10.5-9.5,22.1-9.5h458.3h0.3c1.4,0.1,8.8,0.5,16.6,3.8c13.1,5.4,20.7,16,20.7,29.1v146.5H715V338.9c0-0.5,0-1.3-2.9-2.4
				c-2.9-1.2-6-1.5-6.8-1.6H247.9h-0.1c-0.1,0.7-0.1,1.5,0,1.7l0.2,1.2v245c0,4.5,0.9,6.8,1.7,7.6c0.8,0.7,2.9,0.9,4,0.8l1.4-0.4
				l1,0.1h185.4v28.8H256.9C255.9,619.8,254.6,619.9,253,619.9z M253.4,591.1L253.4,591.1L253.4,591.1z"/>
		</g>
		<g>
			<path class="st21" d="M422.5,528c-3.7,0-7.5-1.4-10.3-4.3L279,388.4c-5.6-5.7-5.5-14.8,0.2-20.3c5.7-5.6,14.8-5.5,20.3,0.2
				l133.2,135.3c5.6,5.7,5.5,14.8-0.2,20.3C429.8,526.7,426.1,528,422.5,528z"/>
		</g>
		<g>
			<path class="st21" d="M422.5,528h-94.2c-7.9,0-14.4-6.5-14.4-14.4s6.5-14.4,14.4-14.4h94.2c7.9,0,14.4,6.5,14.4,14.4
				S430.5,528,422.5,528z"/>
		</g>
		<g>
			<path class="st21" d="M422.5,528c-7.9,0-14.4-6.5-14.4-14.4V413.3c0-7.9,6.5-14.4,14.4-14.4c7.9,0,14.4,6.5,14.4,14.4v100.4
				C436.9,521.5,430.5,528,422.5,528z"/>
		</g>
		<g>
			<path class="st21" d="M773.8,725.6H510.6c-24.4,0-44.2-19.8-44.2-44.2V565.9c0-24.4,19.8-44.2,44.2-44.2h263.2
				c24.4,0,44.2,19.8,44.2,44.2v115.5C818,705.7,798.2,725.6,773.8,725.6z M510.6,550.5c-8.5,0-15.4,6.9-15.4,15.4v115.5
				c0,8.5,6.9,15.4,15.4,15.4h263.2c8.5,0,15.4-6.9,15.4-15.4V565.9c0-8.5-6.9-15.4-15.4-15.4H510.6L510.6,550.5z"/>
		</g>
	</g>
	<g class="st20">
		<g>
			<path class="st22" d="M253,619.9c-5.6,0-14.3-1.2-21.8-7.5c-5.5-4.6-12.1-13.5-12.1-29.7V339.9c-0.4-4.3-0.8-15.5,6.6-24.3
				c3.7-4.3,10.5-9.5,22.1-9.5h458.3h0.3c1.4,0.1,8.8,0.5,16.6,3.8c13.1,5.4,20.7,16,20.7,29.1v146.5H715V338.9c0-0.5,0-1.3-2.9-2.4
				c-2.9-1.2-6-1.5-6.8-1.6H247.9h-0.1c-0.1,0.7-0.1,1.5,0,1.7l0.2,1.2v245c0,4.5,0.9,6.8,1.7,7.6c0.8,0.7,2.9,0.9,4,0.8l1.4-0.4
				l1,0.1h185.4v28.8H256.9C255.9,619.8,254.6,619.9,253,619.9z M253.4,591.1L253.4,591.1L253.4,591.1z"/>
		</g>
		<g>
			<path class="st22" d="M422.5,528c-3.7,0-7.5-1.4-10.3-4.3L279,388.4c-5.6-5.7-5.5-14.8,0.2-20.3c5.7-5.6,14.8-5.5,20.3,0.2
				l133.2,135.3c5.6,5.7,5.5,14.8-0.2,20.3C429.8,526.7,426.1,528,422.5,528z"/>
		</g>
		<g>
			<path class="st22" d="M422.5,528h-94.2c-7.9,0-14.4-6.5-14.4-14.4s6.5-14.4,14.4-14.4h94.2c7.9,0,14.4,6.5,14.4,14.4
				S430.5,528,422.5,528z"/>
		</g>
		<g>
			<path class="st22" d="M422.5,528c-7.9,0-14.4-6.5-14.4-14.4V413.3c0-7.9,6.5-14.4,14.4-14.4c7.9,0,14.4,6.5,14.4,14.4v100.4
				C436.9,521.5,430.5,528,422.5,528z"/>
		</g>
		<g>
			<path class="st22" d="M773.8,725.6H510.6c-24.4,0-44.2-19.8-44.2-44.2V565.9c0-24.4,19.8-44.2,44.2-44.2h263.2
				c24.4,0,44.2,19.8,44.2,44.2v115.5C818,705.7,798.2,725.6,773.8,725.6z M510.6,550.5c-8.5,0-15.4,6.9-15.4,15.4v115.5
				c0,8.5,6.9,15.4,15.4,15.4h263.2c8.5,0,15.4-6.9,15.4-15.4V565.9c0-8.5-6.9-15.4-15.4-15.4H510.6L510.6,550.5z"/>
		</g>
	</g>
	<g class="st23">
		<g>
			<path class="st24" d="M253,619.9c-5.6,0-14.3-1.2-21.8-7.5c-5.5-4.6-12.1-13.5-12.1-29.7V339.9c-0.4-4.3-0.8-15.5,6.6-24.3
				c3.7-4.3,10.5-9.5,22.1-9.5h458.3h0.3c1.4,0.1,8.8,0.5,16.6,3.8c13.1,5.4,20.7,16,20.7,29.1v146.5H715V338.9c0-0.5,0-1.3-2.9-2.4
				c-2.9-1.2-6-1.5-6.8-1.6H247.9h-0.1c-0.1,0.7-0.1,1.5,0,1.7l0.2,1.2v245c0,4.5,0.9,6.8,1.7,7.6c0.8,0.7,2.9,0.9,4,0.8l1.4-0.4
				l1,0.1h185.4v28.8H256.9C255.9,619.8,254.6,619.9,253,619.9z M253.4,591.1L253.4,591.1L253.4,591.1z"/>
		</g>
		<g>
			<path class="st24" d="M422.5,528c-3.7,0-7.5-1.4-10.3-4.3L279,388.4c-5.6-5.7-5.5-14.8,0.2-20.3c5.7-5.6,14.8-5.5,20.3,0.2
				l133.2,135.3c5.6,5.7,5.5,14.8-0.2,20.3C429.8,526.7,426.1,528,422.5,528z"/>
		</g>
		<g>
			<path class="st24" d="M422.5,528h-94.2c-7.9,0-14.4-6.5-14.4-14.4s6.5-14.4,14.4-14.4h94.2c7.9,0,14.4,6.5,14.4,14.4
				S430.5,528,422.5,528z"/>
		</g>
		<g>
			<path class="st24" d="M422.5,528c-7.9,0-14.4-6.5-14.4-14.4V413.3c0-7.9,6.5-14.4,14.4-14.4c7.9,0,14.4,6.5,14.4,14.4v100.4
				C436.9,521.5,430.5,528,422.5,528z"/>
		</g>
		<g>
			<path class="st24" d="M773.8,725.6H510.6c-24.4,0-44.2-19.8-44.2-44.2V565.9c0-24.4,19.8-44.2,44.2-44.2h263.2
				c24.4,0,44.2,19.8,44.2,44.2v115.5C818,705.7,798.2,725.6,773.8,725.6z M510.6,550.5c-8.5,0-15.4,6.9-15.4,15.4v115.5
				c0,8.5,6.9,15.4,15.4,15.4h263.2c8.5,0,15.4-6.9,15.4-15.4V565.9c0-8.5-6.9-15.4-15.4-15.4H510.6L510.6,550.5z"/>
		</g>
	</g>
	<g class="st23">
		<g>
			<path class="st25" d="M253,619.9c-5.6,0-14.3-1.2-21.8-7.5c-5.5-4.6-12.1-13.5-12.1-29.7V339.9c-0.4-4.3-0.8-15.5,6.6-24.3
				c3.7-4.3,10.5-9.5,22.1-9.5h458.3h0.3c1.4,0.1,8.8,0.5,16.6,3.8c13.1,5.4,20.7,16,20.7,29.1v146.5H715V338.9c0-0.5,0-1.3-2.9-2.4
				c-2.9-1.2-6-1.5-6.8-1.6H247.9h-0.1c-0.1,0.7-0.1,1.5,0,1.7l0.2,1.2v245c0,4.5,0.9,6.8,1.7,7.6c0.8,0.7,2.9,0.9,4,0.8l1.4-0.4
				l1,0.1h185.4v28.8H256.9C255.9,619.8,254.6,619.9,253,619.9z M253.4,591.1L253.4,591.1L253.4,591.1z"/>
		</g>
		<g>
			<path class="st25" d="M422.5,528c-3.7,0-7.5-1.4-10.3-4.3L279,388.4c-5.6-5.7-5.5-14.8,0.2-20.3c5.7-5.6,14.8-5.5,20.3,0.2
				l133.2,135.3c5.6,5.7,5.5,14.8-0.2,20.3C429.8,526.7,426.1,528,422.5,528z"/>
		</g>
		<g>
			<path class="st25" d="M422.5,528h-94.2c-7.9,0-14.4-6.5-14.4-14.4s6.5-14.4,14.4-14.4h94.2c7.9,0,14.4,6.5,14.4,14.4
				S430.5,528,422.5,528z"/>
		</g>
		<g>
			<path class="st25" d="M422.5,528c-7.9,0-14.4-6.5-14.4-14.4V413.3c0-7.9,6.5-14.4,14.4-14.4c7.9,0,14.4,6.5,14.4,14.4v100.4
				C436.9,521.5,430.5,528,422.5,528z"/>
		</g>
		<g>
			<path class="st25" d="M773.8,725.6H510.6c-24.4,0-44.2-19.8-44.2-44.2V565.9c0-24.4,19.8-44.2,44.2-44.2h263.2
				c24.4,0,44.2,19.8,44.2,44.2v115.5C818,705.7,798.2,725.6,773.8,725.6z M510.6,550.5c-8.5,0-15.4,6.9-15.4,15.4v115.5
				c0,8.5,6.9,15.4,15.4,15.4h263.2c8.5,0,15.4-6.9,15.4-15.4V565.9c0-8.5-6.9-15.4-15.4-15.4H510.6L510.6,550.5z"/>
		</g>
	</g>
	<g class="st26">
		<g>
			<path class="st27" d="M253,619.9c-5.6,0-14.3-1.2-21.8-7.5c-5.5-4.6-12.1-13.5-12.1-29.7V339.9c-0.4-4.3-0.8-15.5,6.6-24.3
				c3.7-4.3,10.5-9.5,22.1-9.5h458.3h0.3c1.4,0.1,8.8,0.5,16.6,3.8c13.1,5.4,20.7,16,20.7,29.1v146.5H715V338.9c0-0.5,0-1.3-2.9-2.4
				c-2.9-1.2-6-1.5-6.8-1.6H247.9h-0.1c-0.1,0.7-0.1,1.5,0,1.7l0.2,1.2v245c0,4.5,0.9,6.8,1.7,7.6c0.8,0.7,2.9,0.9,4,0.8l1.4-0.4
				l1,0.1h185.4v28.8H256.9C255.9,619.8,254.6,619.9,253,619.9z M253.4,591.1L253.4,591.1L253.4,591.1z"/>
		</g>
		<g>
			<path class="st27" d="M422.5,528c-3.7,0-7.5-1.4-10.3-4.3L279,388.4c-5.6-5.7-5.5-14.8,0.2-20.3c5.7-5.6,14.8-5.5,20.3,0.2
				l133.2,135.3c5.6,5.7,5.5,14.8-0.2,20.3C429.8,526.7,426.1,528,422.5,528z"/>
		</g>
		<g>
			<path class="st27" d="M422.5,528h-94.2c-7.9,0-14.4-6.5-14.4-14.4s6.5-14.4,14.4-14.4h94.2c7.9,0,14.4,6.5,14.4,14.4
				S430.5,528,422.5,528z"/>
		</g>
		<g>
			<path class="st27" d="M422.5,528c-7.9,0-14.4-6.5-14.4-14.4V413.3c0-7.9,6.5-14.4,14.4-14.4c7.9,0,14.4,6.5,14.4,14.4v100.4
				C436.9,521.5,430.5,528,422.5,528z"/>
		</g>
		<g>
			<path class="st27" d="M773.8,725.6H510.6c-24.4,0-44.2-19.8-44.2-44.2V565.9c0-24.4,19.8-44.2,44.2-44.2h263.2
				c24.4,0,44.2,19.8,44.2,44.2v115.5C818,705.7,798.2,725.6,773.8,725.6z M510.6,550.5c-8.5,0-15.4,6.9-15.4,15.4v115.5
				c0,8.5,6.9,15.4,15.4,15.4h263.2c8.5,0,15.4-6.9,15.4-15.4V565.9c0-8.5-6.9-15.4-15.4-15.4H510.6L510.6,550.5z"/>
		</g>
	</g>
	<g class="st26">
		<g>
			<path class="st28" d="M253,619.9c-5.6,0-14.3-1.2-21.8-7.5c-5.5-4.6-12.1-13.5-12.1-29.7V339.9c-0.4-4.3-0.8-15.5,6.6-24.3
				c3.7-4.3,10.5-9.5,22.1-9.5h458.3h0.3c1.4,0.1,8.8,0.5,16.6,3.8c13.1,5.4,20.7,16,20.7,29.1v146.5H715V338.9c0-0.5,0-1.3-2.9-2.4
				c-2.9-1.2-6-1.5-6.8-1.6H247.9h-0.1c-0.1,0.7-0.1,1.5,0,1.7l0.2,1.2v245c0,4.5,0.9,6.8,1.7,7.6c0.8,0.7,2.9,0.9,4,0.8l1.4-0.4
				l1,0.1h185.4v28.8H256.9C255.9,619.8,254.6,619.9,253,619.9z M253.4,591.1L253.4,591.1L253.4,591.1z"/>
		</g>
		<g>
			<path class="st28" d="M422.5,528c-3.7,0-7.5-1.4-10.3-4.3L279,388.4c-5.6-5.7-5.5-14.8,0.2-20.3c5.7-5.6,14.8-5.5,20.3,0.2
				l133.2,135.3c5.6,5.7,5.5,14.8-0.2,20.3C429.8,526.7,426.1,528,422.5,528z"/>
		</g>
		<g>
			<path class="st28" d="M422.5,528h-94.2c-7.9,0-14.4-6.5-14.4-14.4s6.5-14.4,14.4-14.4h94.2c7.9,0,14.4,6.5,14.4,14.4
				S430.5,528,422.5,528z"/>
		</g>
		<g>
			<path class="st28" d="M422.5,528c-7.9,0-14.4-6.5-14.4-14.4V413.3c0-7.9,6.5-14.4,14.4-14.4c7.9,0,14.4,6.5,14.4,14.4v100.4
				C436.9,521.5,430.5,528,422.5,528z"/>
		</g>
		<g>
			<path class="st28" d="M773.8,725.6H510.6c-24.4,0-44.2-19.8-44.2-44.2V565.9c0-24.4,19.8-44.2,44.2-44.2h263.2
				c24.4,0,44.2,19.8,44.2,44.2v115.5C818,705.7,798.2,725.6,773.8,725.6z M510.6,550.5c-8.5,0-15.4,6.9-15.4,15.4v115.5
				c0,8.5,6.9,15.4,15.4,15.4h263.2c8.5,0,15.4-6.9,15.4-15.4V565.9c0-8.5-6.9-15.4-15.4-15.4H510.6L510.6,550.5z"/>
		</g>
	</g>
	<g class="st29">
		<g>
			<path class="st30" d="M253,619.9c-5.6,0-14.3-1.2-21.8-7.5c-5.5-4.6-12.1-13.5-12.1-29.7V339.9c-0.4-4.3-0.8-15.5,6.6-24.3
				c3.7-4.3,10.5-9.5,22.1-9.5h458.3h0.3c1.4,0.1,8.8,0.5,16.6,3.8c13.1,5.4,20.7,16,20.7,29.1v146.5H715V338.9c0-0.5,0-1.3-2.9-2.4
				c-2.9-1.2-6-1.5-6.8-1.6H247.9h-0.1c-0.1,0.7-0.1,1.5,0,1.7l0.2,1.2v245c0,4.5,0.9,6.8,1.7,7.6c0.8,0.7,2.9,0.9,4,0.8l1.4-0.4
				l1,0.1h185.4v28.8H256.9C255.9,619.8,254.6,619.9,253,619.9z M253.4,591.1L253.4,591.1L253.4,591.1z"/>
		</g>
		<g>
			<path class="st30" d="M422.5,528c-3.7,0-7.5-1.4-10.3-4.3L279,388.4c-5.6-5.7-5.5-14.8,0.2-20.3c5.7-5.6,14.8-5.5,20.3,0.2
				l133.2,135.3c5.6,5.7,5.5,14.8-0.2,20.3C429.8,526.7,426.1,528,422.5,528z"/>
		</g>
		<g>
			<path class="st30" d="M422.5,528h-94.2c-7.9,0-14.4-6.5-14.4-14.4s6.5-14.4,14.4-14.4h94.2c7.9,0,14.4,6.5,14.4,14.4
				S430.5,528,422.5,528z"/>
		</g>
		<g>
			<path class="st30" d="M422.5,528c-7.9,0-14.4-6.5-14.4-14.4V413.3c0-7.9,6.5-14.4,14.4-14.4c7.9,0,14.4,6.5,14.4,14.4v100.4
				C436.9,521.5,430.5,528,422.5,528z"/>
		</g>
		<g>
			<path class="st30" d="M773.8,725.6H510.6c-24.4,0-44.2-19.8-44.2-44.2V565.9c0-24.4,19.8-44.2,44.2-44.2h263.2
				c24.4,0,44.2,19.8,44.2,44.2v115.5C818,705.7,798.2,725.6,773.8,725.6z M510.6,550.5c-8.5,0-15.4,6.9-15.4,15.4v115.5
				c0,8.5,6.9,15.4,15.4,15.4h263.2c8.5,0,15.4-6.9,15.4-15.4V565.9c0-8.5-6.9-15.4-15.4-15.4H510.6L510.6,550.5z"/>
		</g>
	</g>
	<g class="st29">
		<g>
			<path class="st31" d="M253,619.9c-5.6,0-14.3-1.2-21.8-7.5c-5.5-4.6-12.1-13.5-12.1-29.7V339.9c-0.4-4.3-0.8-15.5,6.6-24.3
				c3.7-4.3,10.5-9.5,22.1-9.5h458.3h0.3c1.4,0.1,8.8,0.5,16.6,3.8c13.1,5.4,20.7,16,20.7,29.1v146.5H715V338.9c0-0.5,0-1.3-2.9-2.4
				c-2.9-1.2-6-1.5-6.8-1.6H247.9h-0.1c-0.1,0.7-0.1,1.5,0,1.7l0.2,1.2v245c0,4.5,0.9,6.8,1.7,7.6c0.8,0.7,2.9,0.9,4,0.8l1.4-0.4
				l1,0.1h185.4v28.8H256.9C255.9,619.8,254.6,619.9,253,619.9z M253.4,591.1L253.4,591.1L253.4,591.1z"/>
		</g>
		<g>
			<path class="st31" d="M422.5,528c-3.7,0-7.5-1.4-10.3-4.3L279,388.4c-5.6-5.7-5.5-14.8,0.2-20.3c5.7-5.6,14.8-5.5,20.3,0.2
				l133.2,135.3c5.6,5.7,5.5,14.8-0.2,20.3C429.8,526.7,426.1,528,422.5,528z"/>
		</g>
		<g>
			<path class="st31" d="M422.5,528h-94.2c-7.9,0-14.4-6.5-14.4-14.4s6.5-14.4,14.4-14.4h94.2c7.9,0,14.4,6.5,14.4,14.4
				S430.5,528,422.5,528z"/>
		</g>
		<g>
			<path class="st31" d="M422.5,528c-7.9,0-14.4-6.5-14.4-14.4V413.3c0-7.9,6.5-14.4,14.4-14.4c7.9,0,14.4,6.5,14.4,14.4v100.4
				C436.9,521.5,430.5,528,422.5,528z"/>
		</g>
		<g>
			<path class="st31" d="M773.8,725.6H510.6c-24.4,0-44.2-19.8-44.2-44.2V565.9c0-24.4,19.8-44.2,44.2-44.2h263.2
				c24.4,0,44.2,19.8,44.2,44.2v115.5C818,705.7,798.2,725.6,773.8,725.6z M510.6,550.5c-8.5,0-15.4,6.9-15.4,15.4v115.5
				c0,8.5,6.9,15.4,15.4,15.4h263.2c8.5,0,15.4-6.9,15.4-15.4V565.9c0-8.5-6.9-15.4-15.4-15.4H510.6L510.6,550.5z"/>
		</g>
	</g>
	<g class="st32">
		<g>
			<path class="st33" d="M253,619.9c-5.6,0-14.3-1.2-21.8-7.5c-5.5-4.6-12.1-13.5-12.1-29.7V339.9c-0.4-4.3-0.8-15.5,6.6-24.3
				c3.7-4.3,10.5-9.5,22.1-9.5h458.3h0.3c1.4,0.1,8.8,0.5,16.6,3.8c13.1,5.4,20.7,16,20.7,29.1v146.5H715V338.9c0-0.5,0-1.3-2.9-2.4
				c-2.9-1.2-6-1.5-6.8-1.6H247.9h-0.1c-0.1,0.7-0.1,1.5,0,1.7l0.2,1.2v245c0,4.5,0.9,6.8,1.7,7.6c0.8,0.7,2.9,0.9,4,0.8l1.4-0.4
				l1,0.1h185.4v28.8H256.9C255.9,619.8,254.6,619.9,253,619.9z M253.4,591.1L253.4,591.1L253.4,591.1z"/>
		</g>
		<g>
			<path class="st33" d="M422.5,528c-3.7,0-7.5-1.4-10.3-4.3L279,388.4c-5.6-5.7-5.5-14.8,0.2-20.3c5.7-5.6,14.8-5.5,20.3,0.2
				l133.2,135.3c5.6,5.7,5.5,14.8-0.2,20.3C429.8,526.7,426.1,528,422.5,528z"/>
		</g>
		<g>
			<path class="st33" d="M422.5,528h-94.2c-7.9,0-14.4-6.5-14.4-14.4s6.5-14.4,14.4-14.4h94.2c7.9,0,14.4,6.5,14.4,14.4
				S430.5,528,422.5,528z"/>
		</g>
		<g>
			<path class="st33" d="M422.5,528c-7.9,0-14.4-6.5-14.4-14.4V413.3c0-7.9,6.5-14.4,14.4-14.4c7.9,0,14.4,6.5,14.4,14.4v100.4
				C436.9,521.5,430.5,528,422.5,528z"/>
		</g>
		<g>
			<path class="st33" d="M773.8,725.6H510.6c-24.4,0-44.2-19.8-44.2-44.2V565.9c0-24.4,19.8-44.2,44.2-44.2h263.2
				c24.4,0,44.2,19.8,44.2,44.2v115.5C818,705.7,798.2,725.6,773.8,725.6z M510.6,550.5c-8.5,0-15.4,6.9-15.4,15.4v115.5
				c0,8.5,6.9,15.4,15.4,15.4h263.2c8.5,0,15.4-6.9,15.4-15.4V565.9c0-8.5-6.9-15.4-15.4-15.4H510.6L510.6,550.5z"/>
		</g>
	</g>
	<g class="st32">
		<g>
			<path class="st34" d="M253,619.9c-5.6,0-14.3-1.2-21.8-7.5c-5.5-4.6-12.1-13.5-12.1-29.7V339.9c-0.4-4.3-0.8-15.5,6.6-24.3
				c3.7-4.3,10.5-9.5,22.1-9.5h458.3h0.3c1.4,0.1,8.8,0.5,16.6,3.8c13.1,5.4,20.7,16,20.7,29.1v146.5H715V338.9c0-0.5,0-1.3-2.9-2.4
				c-2.9-1.2-6-1.5-6.8-1.6H247.9h-0.1c-0.1,0.7-0.1,1.5,0,1.7l0.2,1.2v245c0,4.5,0.9,6.8,1.7,7.6c0.8,0.7,2.9,0.9,4,0.8l1.4-0.4
				l1,0.1h185.4v28.8H256.9C255.9,619.8,254.6,619.9,253,619.9z M253.4,591.1L253.4,591.1L253.4,591.1z"/>
		</g>
		<g>
			<path class="st34" d="M422.5,528c-3.7,0-7.5-1.4-10.3-4.3L279,388.4c-5.6-5.7-5.5-14.8,0.2-20.3c5.7-5.6,14.8-5.5,20.3,0.2
				l133.2,135.3c5.6,5.7,5.5,14.8-0.2,20.3C429.8,526.7,426.1,528,422.5,528z"/>
		</g>
		<g>
			<path class="st34" d="M422.5,528h-94.2c-7.9,0-14.4-6.5-14.4-14.4s6.5-14.4,14.4-14.4h94.2c7.9,0,14.4,6.5,14.4,14.4
				S430.5,528,422.5,528z"/>
		</g>
		<g>
			<path class="st34" d="M422.5,528c-7.9,0-14.4-6.5-14.4-14.4V413.3c0-7.9,6.5-14.4,14.4-14.4c7.9,0,14.4,6.5,14.4,14.4v100.4
				C436.9,521.5,430.5,528,422.5,528z"/>
		</g>
		<g>
			<path class="st34" d="M773.8,725.6H510.6c-24.4,0-44.2-19.8-44.2-44.2V565.9c0-24.4,19.8-44.2,44.2-44.2h263.2
				c24.4,0,44.2,19.8,44.2,44.2v115.5C818,705.7,798.2,725.6,773.8,725.6z M510.6,550.5c-8.5,0-15.4,6.9-15.4,15.4v115.5
				c0,8.5,6.9,15.4,15.4,15.4h263.2c8.5,0,15.4-6.9,15.4-15.4V565.9c0-8.5-6.9-15.4-15.4-15.4H510.6L510.6,550.5z"/>
		</g>
	</g>
	<g class="st35">
		<g>
			<path class="st36" d="M253,619.9c-5.6,0-14.3-1.2-21.8-7.5c-5.5-4.6-12.1-13.5-12.1-29.7V339.9c-0.4-4.3-0.8-15.5,6.6-24.3
				c3.7-4.3,10.5-9.5,22.1-9.5h458.3h0.3c1.4,0.1,8.8,0.5,16.6,3.8c13.1,5.4,20.7,16,20.7,29.1v146.5H715V338.9c0-0.5,0-1.3-2.9-2.4
				c-2.9-1.2-6-1.5-6.8-1.6H247.9h-0.1c-0.1,0.7-0.1,1.5,0,1.7l0.2,1.2v245c0,4.5,0.9,6.8,1.7,7.6c0.8,0.7,2.9,0.9,4,0.8l1.4-0.4
				l1,0.1h185.4v28.8H256.9C255.9,619.8,254.6,619.9,253,619.9z M253.4,591.1L253.4,591.1L253.4,591.1z"/>
		</g>
		<g>
			<path class="st36" d="M422.5,528c-3.7,0-7.5-1.4-10.3-4.3L279,388.4c-5.6-5.7-5.5-14.8,0.2-20.3c5.7-5.6,14.8-5.5,20.3,0.2
				l133.2,135.3c5.6,5.7,5.5,14.8-0.2,20.3C429.8,526.7,426.1,528,422.5,528z"/>
		</g>
		<g>
			<path class="st36" d="M422.5,528h-94.2c-7.9,0-14.4-6.5-14.4-14.4s6.5-14.4,14.4-14.4h94.2c7.9,0,14.4,6.5,14.4,14.4
				S430.5,528,422.5,528z"/>
		</g>
		<g>
			<path class="st36" d="M422.5,528c-7.9,0-14.4-6.5-14.4-14.4V413.3c0-7.9,6.5-14.4,14.4-14.4c7.9,0,14.4,6.5,14.4,14.4v100.4
				C436.9,521.5,430.5,528,422.5,528z"/>
		</g>
		<g>
			<path class="st36" d="M773.8,725.6H510.6c-24.4,0-44.2-19.8-44.2-44.2V565.9c0-24.4,19.8-44.2,44.2-44.2h263.2
				c24.4,0,44.2,19.8,44.2,44.2v115.5C818,705.7,798.2,725.6,773.8,725.6z M510.6,550.5c-8.5,0-15.4,6.9-15.4,15.4v115.5
				c0,8.5,6.9,15.4,15.4,15.4h263.2c8.5,0,15.4-6.9,15.4-15.4V565.9c0-8.5-6.9-15.4-15.4-15.4H510.6L510.6,550.5z"/>
		</g>
	</g>
	<g class="st35">
		<g>
			<path class="st37" d="M253,619.9c-5.6,0-14.3-1.2-21.8-7.5c-5.5-4.6-12.1-13.5-12.1-29.7V339.9c-0.4-4.3-0.8-15.5,6.6-24.3
				c3.7-4.3,10.5-9.5,22.1-9.5h458.3h0.3c1.4,0.1,8.8,0.5,16.6,3.8c13.1,5.4,20.7,16,20.7,29.1v146.5H715V338.9c0-0.5,0-1.3-2.9-2.4
				c-2.9-1.2-6-1.5-6.8-1.6H247.9h-0.1c-0.1,0.7-0.1,1.5,0,1.7l0.2,1.2v245c0,4.5,0.9,6.8,1.7,7.6c0.8,0.7,2.9,0.9,4,0.8l1.4-0.4
				l1,0.1h185.4v28.8H256.9C255.9,619.8,254.6,619.9,253,619.9z M253.4,591.1L253.4,591.1L253.4,591.1z"/>
		</g>
		<g>
			<path class="st37" d="M422.5,528c-3.7,0-7.5-1.4-10.3-4.3L279,388.4c-5.6-5.7-5.5-14.8,0.2-20.3c5.7-5.6,14.8-5.5,20.3,0.2
				l133.2,135.3c5.6,5.7,5.5,14.8-0.2,20.3C429.8,526.7,426.1,528,422.5,528z"/>
		</g>
		<g>
			<path class="st37" d="M422.5,528h-94.2c-7.9,0-14.4-6.5-14.4-14.4s6.5-14.4,14.4-14.4h94.2c7.9,0,14.4,6.5,14.4,14.4
				S430.5,528,422.5,528z"/>
		</g>
		<g>
			<path class="st37" d="M422.5,528c-7.9,0-14.4-6.5-14.4-14.4V413.3c0-7.9,6.5-14.4,14.4-14.4c7.9,0,14.4,6.5,14.4,14.4v100.4
				C436.9,521.5,430.5,528,422.5,528z"/>
		</g>
		<g>
			<path class="st37" d="M773.8,725.6H510.6c-24.4,0-44.2-19.8-44.2-44.2V565.9c0-24.4,19.8-44.2,44.2-44.2h263.2
				c24.4,0,44.2,19.8,44.2,44.2v115.5C818,705.7,798.2,725.6,773.8,725.6z M510.6,550.5c-8.5,0-15.4,6.9-15.4,15.4v115.5
				c0,8.5,6.9,15.4,15.4,15.4h263.2c8.5,0,15.4-6.9,15.4-15.4V565.9c0-8.5-6.9-15.4-15.4-15.4H510.6L510.6,550.5z"/>
		</g>
	</g>
	<g class="st38">
		<g>
			<path class="st39" d="M253,619.9c-5.6,0-14.3-1.2-21.8-7.5c-5.5-4.6-12.1-13.5-12.1-29.7V339.9c-0.4-4.3-0.8-15.5,6.6-24.3
				c3.7-4.3,10.5-9.5,22.1-9.5h458.3h0.3c1.4,0.1,8.8,0.5,16.6,3.8c13.1,5.4,20.7,16,20.7,29.1v146.5H715V338.9c0-0.5,0-1.3-2.9-2.4
				c-2.9-1.2-6-1.5-6.8-1.6H247.9h-0.1c-0.1,0.7-0.1,1.5,0,1.7l0.2,1.2v245c0,4.5,0.9,6.8,1.7,7.6c0.8,0.7,2.9,0.9,4,0.8l1.4-0.4
				l1,0.1h185.4v28.8H256.9C255.9,619.8,254.6,619.9,253,619.9z M253.4,591.1L253.4,591.1L253.4,591.1z"/>
		</g>
		<g>
			<path class="st39" d="M422.5,528c-3.7,0-7.5-1.4-10.3-4.3L279,388.4c-5.6-5.7-5.5-14.8,0.2-20.3c5.7-5.6,14.8-5.5,20.3,0.2
				l133.2,135.3c5.6,5.7,5.5,14.8-0.2,20.3C429.8,526.7,426.1,528,422.5,528z"/>
		</g>
		<g>
			<path class="st39" d="M422.5,528h-94.2c-7.9,0-14.4-6.5-14.4-14.4s6.5-14.4,14.4-14.4h94.2c7.9,0,14.4,6.5,14.4,14.4
				S430.5,528,422.5,528z"/>
		</g>
		<g>
			<path class="st39" d="M422.5,528c-7.9,0-14.4-6.5-14.4-14.4V413.3c0-7.9,6.5-14.4,14.4-14.4c7.9,0,14.4,6.5,14.4,14.4v100.4
				C436.9,521.5,430.5,528,422.5,528z"/>
		</g>
		<g>
			<path class="st39" d="M773.8,725.6H510.6c-24.4,0-44.2-19.8-44.2-44.2V565.9c0-24.4,19.8-44.2,44.2-44.2h263.2
				c24.4,0,44.2,19.8,44.2,44.2v115.5C818,705.7,798.2,725.6,773.8,725.6z M510.6,550.5c-8.5,0-15.4,6.9-15.4,15.4v115.5
				c0,8.5,6.9,15.4,15.4,15.4h263.2c8.5,0,15.4-6.9,15.4-15.4V565.9c0-8.5-6.9-15.4-15.4-15.4H510.6L510.6,550.5z"/>
		</g>
	</g>
	<g class="st38">
		<g>
			<path class="st40" d="M253,619.9c-5.6,0-14.3-1.2-21.8-7.5c-5.5-4.6-12.1-13.5-12.1-29.7V339.9c-0.4-4.3-0.8-15.5,6.6-24.3
				c3.7-4.3,10.5-9.5,22.1-9.5h458.3h0.3c1.4,0.1,8.8,0.5,16.6,3.8c13.1,5.4,20.7,16,20.7,29.1v146.5H715V338.9c0-0.5,0-1.3-2.9-2.4
				c-2.9-1.2-6-1.5-6.8-1.6H247.9h-0.1c-0.1,0.7-0.1,1.5,0,1.7l0.2,1.2v245c0,4.5,0.9,6.8,1.7,7.6c0.8,0.7,2.9,0.9,4,0.8l1.4-0.4
				l1,0.1h185.4v28.8H256.9C255.9,619.8,254.6,619.9,253,619.9z M253.4,591.1L253.4,591.1L253.4,591.1z"/>
		</g>
		<g>
			<path class="st40" d="M422.5,528c-3.7,0-7.5-1.4-10.3-4.3L279,388.4c-5.6-5.7-5.5-14.8,0.2-20.3c5.7-5.6,14.8-5.5,20.3,0.2
				l133.2,135.3c5.6,5.7,5.5,14.8-0.2,20.3C429.8,526.7,426.1,528,422.5,528z"/>
		</g>
		<g>
			<path class="st40" d="M422.5,528h-94.2c-7.9,0-14.4-6.5-14.4-14.4s6.5-14.4,14.4-14.4h94.2c7.9,0,14.4,6.5,14.4,14.4
				S430.5,528,422.5,528z"/>
		</g>
		<g>
			<path class="st40" d="M422.5,528c-7.9,0-14.4-6.5-14.4-14.4V413.3c0-7.9,6.5-14.4,14.4-14.4c7.9,0,14.4,6.5,14.4,14.4v100.4
				C436.9,521.5,430.5,528,422.5,528z"/>
		</g>
		<g>
			<path class="st40" d="M773.8,725.6H510.6c-24.4,0-44.2-19.8-44.2-44.2V565.9c0-24.4,19.8-44.2,44.2-44.2h263.2
				c24.4,0,44.2,19.8,44.2,44.2v115.5C818,705.7,798.2,725.6,773.8,725.6z M510.6,550.5c-8.5,0-15.4,6.9-15.4,15.4v115.5
				c0,8.5,6.9,15.4,15.4,15.4h263.2c8.5,0,15.4-6.9,15.4-15.4V565.9c0-8.5-6.9-15.4-15.4-15.4H510.6L510.6,550.5z"/>
		</g>
	</g>
	<g class="st41">
		<g>
			<path class="st42" d="M253,619.9c-5.6,0-14.3-1.2-21.8-7.5c-5.5-4.6-12.1-13.5-12.1-29.7V339.9c-0.4-4.3-0.8-15.5,6.6-24.3
				c3.7-4.3,10.5-9.5,22.1-9.5h458.3h0.3c1.4,0.1,8.8,0.5,16.6,3.8c13.1,5.4,20.7,16,20.7,29.1v146.5H715V338.9c0-0.5,0-1.3-2.9-2.4
				c-2.9-1.2-6-1.5-6.8-1.6H247.9h-0.1c-0.1,0.7-0.1,1.5,0,1.7l0.2,1.2v245c0,4.5,0.9,6.8,1.7,7.6c0.8,0.7,2.9,0.9,4,0.8l1.4-0.4
				l1,0.1h185.4v28.8H256.9C255.9,619.8,254.6,619.9,253,619.9z M253.4,591.1L253.4,591.1L253.4,591.1z"/>
		</g>
		<g>
			<path class="st42" d="M422.5,528c-3.7,0-7.5-1.4-10.3-4.3L279,388.4c-5.6-5.7-5.5-14.8,0.2-20.3c5.7-5.6,14.8-5.5,20.3,0.2
				l133.2,135.3c5.6,5.7,5.5,14.8-0.2,20.3C429.8,526.7,426.1,528,422.5,528z"/>
		</g>
		<g>
			<path class="st42" d="M422.5,528h-94.2c-7.9,0-14.4-6.5-14.4-14.4s6.5-14.4,14.4-14.4h94.2c7.9,0,14.4,6.5,14.4,14.4
				S430.5,528,422.5,528z"/>
		</g>
		<g>
			<path class="st42" d="M422.5,528c-7.9,0-14.4-6.5-14.4-14.4V413.3c0-7.9,6.5-14.4,14.4-14.4c7.9,0,14.4,6.5,14.4,14.4v100.4
				C436.9,521.5,430.5,528,422.5,528z"/>
		</g>
		<g>
			<path class="st42" d="M773.8,725.6H510.6c-24.4,0-44.2-19.8-44.2-44.2V565.9c0-24.4,19.8-44.2,44.2-44.2h263.2
				c24.4,0,44.2,19.8,44.2,44.2v115.5C818,705.7,798.2,725.6,773.8,725.6z M510.6,550.5c-8.5,0-15.4,6.9-15.4,15.4v115.5
				c0,8.5,6.9,15.4,15.4,15.4h263.2c8.5,0,15.4-6.9,15.4-15.4V565.9c0-8.5-6.9-15.4-15.4-15.4H510.6L510.6,550.5z"/>
		</g>
	</g>
	<g class="st41">
		<g>
			<path class="st43" d="M253,619.9c-5.6,0-14.3-1.2-21.8-7.5c-5.5-4.6-12.1-13.5-12.1-29.7V339.9c-0.4-4.3-0.8-15.5,6.6-24.3
				c3.7-4.3,10.5-9.5,22.1-9.5h458.3h0.3c1.4,0.1,8.8,0.5,16.6,3.8c13.1,5.4,20.7,16,20.7,29.1v146.5H715V338.9c0-0.5,0-1.3-2.9-2.4
				c-2.9-1.2-6-1.5-6.8-1.6H247.9h-0.1c-0.1,0.7-0.1,1.5,0,1.7l0.2,1.2v245c0,4.5,0.9,6.8,1.7,7.6c0.8,0.7,2.9,0.9,4,0.8l1.4-0.4
				l1,0.1h185.4v28.8H256.9C255.9,619.8,254.6,619.9,253,619.9z M253.4,591.1L253.4,591.1L253.4,591.1z"/>
		</g>
		<g>
			<path class="st43" d="M422.5,528c-3.7,0-7.5-1.4-10.3-4.3L279,388.4c-5.6-5.7-5.5-14.8,0.2-20.3c5.7-5.6,14.8-5.5,20.3,0.2
				l133.2,135.3c5.6,5.7,5.5,14.8-0.2,20.3C429.8,526.7,426.1,528,422.5,528z"/>
		</g>
		<g>
			<path class="st43" d="M422.5,528h-94.2c-7.9,0-14.4-6.5-14.4-14.4s6.5-14.4,14.4-14.4h94.2c7.9,0,14.4,6.5,14.4,14.4
				S430.5,528,422.5,528z"/>
		</g>
		<g>
			<path class="st43" d="M422.5,528c-7.9,0-14.4-6.5-14.4-14.4V413.3c0-7.9,6.5-14.4,14.4-14.4c7.9,0,14.4,6.5,14.4,14.4v100.4
				C436.9,521.5,430.5,528,422.5,528z"/>
		</g>
		<g>
			<path class="st43" d="M773.8,725.6H510.6c-24.4,0-44.2-19.8-44.2-44.2V565.9c0-24.4,19.8-44.2,44.2-44.2h263.2
				c24.4,0,44.2,19.8,44.2,44.2v115.5C818,705.7,798.2,725.6,773.8,725.6z M510.6,550.5c-8.5,0-15.4,6.9-15.4,15.4v115.5
				c0,8.5,6.9,15.4,15.4,15.4h263.2c8.5,0,15.4-6.9,15.4-15.4V565.9c0-8.5-6.9-15.4-15.4-15.4H510.6L510.6,550.5z"/>
		</g>
	</g>
	<g class="st44">
		<g>
			<path class="st45" d="M253,619.9c-5.6,0-14.3-1.2-21.8-7.5c-5.5-4.6-12.1-13.5-12.1-29.7V339.9c-0.4-4.3-0.8-15.5,6.6-24.3
				c3.7-4.3,10.5-9.5,22.1-9.5h458.3h0.3c1.4,0.1,8.8,0.5,16.6,3.8c13.1,5.4,20.7,16,20.7,29.1v146.5H715V338.9c0-0.5,0-1.3-2.9-2.4
				c-2.9-1.2-6-1.5-6.8-1.6H247.9h-0.1c-0.1,0.7-0.1,1.5,0,1.7l0.2,1.2v245c0,4.5,0.9,6.8,1.7,7.6c0.8,0.7,2.9,0.9,4,0.8l1.4-0.4
				l1,0.1h185.4v28.8H256.9C255.9,619.8,254.6,619.9,253,619.9z M253.4,591.1L253.4,591.1L253.4,591.1z"/>
		</g>
		<g>
			<path class="st45" d="M422.5,528c-3.7,0-7.5-1.4-10.3-4.3L279,388.4c-5.6-5.7-5.5-14.8,0.2-20.3c5.7-5.6,14.8-5.5,20.3,0.2
				l133.2,135.3c5.6,5.7,5.5,14.8-0.2,20.3C429.8,526.7,426.1,528,422.5,528z"/>
		</g>
		<g>
			<path class="st45" d="M422.5,528h-94.2c-7.9,0-14.4-6.5-14.4-14.4s6.5-14.4,14.4-14.4h94.2c7.9,0,14.4,6.5,14.4,14.4
				S430.5,528,422.5,528z"/>
		</g>
		<g>
			<path class="st45" d="M422.5,528c-7.9,0-14.4-6.5-14.4-14.4V413.3c0-7.9,6.5-14.4,14.4-14.4c7.9,0,14.4,6.5,14.4,14.4v100.4
				C436.9,521.5,430.5,528,422.5,528z"/>
		</g>
		<g>
			<path class="st45" d="M773.8,725.6H510.6c-24.4,0-44.2-19.8-44.2-44.2V565.9c0-24.4,19.8-44.2,44.2-44.2h263.2
				c24.4,0,44.2,19.8,44.2,44.2v115.5C818,705.7,798.2,725.6,773.8,725.6z M510.6,550.5c-8.5,0-15.4,6.9-15.4,15.4v115.5
				c0,8.5,6.9,15.4,15.4,15.4h263.2c8.5,0,15.4-6.9,15.4-15.4V565.9c0-8.5-6.9-15.4-15.4-15.4H510.6L510.6,550.5z"/>
		</g>
	</g>
	<g class="st44">
		<g>
			<path class="st46" d="M253,619.9c-5.6,0-14.3-1.2-21.8-7.5c-5.5-4.6-12.1-13.5-12.1-29.7V339.9c-0.4-4.3-0.8-15.5,6.6-24.3
				c3.7-4.3,10.5-9.5,22.1-9.5h458.3h0.3c1.4,0.1,8.8,0.5,16.6,3.8c13.1,5.4,20.7,16,20.7,29.1v146.5H715V338.9c0-0.5,0-1.3-2.9-2.4
				c-2.9-1.2-6-1.5-6.8-1.6H247.9h-0.1c-0.1,0.7-0.1,1.5,0,1.7l0.2,1.2v245c0,4.5,0.9,6.8,1.7,7.6c0.8,0.7,2.9,0.9,4,0.8l1.4-0.4
				l1,0.1h185.4v28.8H256.9C255.9,619.8,254.6,619.9,253,619.9z M253.4,591.1L253.4,591.1L253.4,591.1z"/>
		</g>
		<g>
			<path class="st46" d="M422.5,528c-3.7,0-7.5-1.4-10.3-4.3L279,388.4c-5.6-5.7-5.5-14.8,0.2-20.3c5.7-5.6,14.8-5.5,20.3,0.2
				l133.2,135.3c5.6,5.7,5.5,14.8-0.2,20.3C429.8,526.7,426.1,528,422.5,528z"/>
		</g>
		<g>
			<path class="st46" d="M422.5,528h-94.2c-7.9,0-14.4-6.5-14.4-14.4s6.5-14.4,14.4-14.4h94.2c7.9,0,14.4,6.5,14.4,14.4
				S430.5,528,422.5,528z"/>
		</g>
		<g>
			<path class="st46" d="M422.5,528c-7.9,0-14.4-6.5-14.4-14.4V413.3c0-7.9,6.5-14.4,14.4-14.4c7.9,0,14.4,6.5,14.4,14.4v100.4
				C436.9,521.5,430.5,528,422.5,528z"/>
		</g>
		<g>
			<path class="st46" d="M773.8,725.6H510.6c-24.4,0-44.2-19.8-44.2-44.2V565.9c0-24.4,19.8-44.2,44.2-44.2h263.2
				c24.4,0,44.2,19.8,44.2,44.2v115.5C818,705.7,798.2,725.6,773.8,725.6z M510.6,550.5c-8.5,0-15.4,6.9-15.4,15.4v115.5
				c0,8.5,6.9,15.4,15.4,15.4h263.2c8.5,0,15.4-6.9,15.4-15.4V565.9c0-8.5-6.9-15.4-15.4-15.4H510.6L510.6,550.5z"/>
		</g>
	</g>
</g>
<g id="Symbol">
	<g>
		<path class="st47" d="M435.1,599H249.7c0,0-22.5,4.1-22.5-22.5c0-26.6,0-243.8,0-243.8s-3.1-18.5,14.3-18.5s457.9,0,457.9,0
			s23.6,1,23.6,18.5c0,17.5,0,146.5,0,146.5"/>
		<line class="st48" x1="416.1" y1="507.3" x2="283" y2="372"/>
		<line class="st48" x1="321.9" y1="507.3" x2="416.1" y2="507.3"/>
		<line class="st48" x1="416.1" y1="407" x2="416.1" y2="507.3"/>
		<path class="st47" d="M767.5,704.9H504.4c-16.4,0-29.8-13.4-29.8-29.8V559.6c0-16.4,13.4-29.8,29.8-29.8h263.2
			c16.4,0,29.8,13.4,29.8,29.8v115.5C797.3,691.5,783.9,704.9,767.5,704.9z"/>
	</g>
</g>
</svg>
