<?xml version="1.0" encoding="utf-8"?>
<!-- Generator: Adobe Illustrator 23.0.0, SVG Export Plug-In . SVG Version: 6.00 Build 0)  -->
<svg version="1.1" id="Symbol" xmlns="http://www.w3.org/2000/svg" xmlns:xlink="http://www.w3.org/1999/xlink" x="0px" y="0px"
	 viewBox="0 0 36 36" style="enable-background:new 0 0 36 36;" xml:space="preserve">
<style type="text/css">
	.st0{fill:none;stroke:#FFFFFF;stroke-width:2.5;stroke-miterlimit:10;}
	.st1{fill:none;stroke:#FFFFFF;stroke-width:2;stroke-linecap:round;stroke-miterlimit:10;}
</style>
<path class="st0" d="M12.8,24.5c0,0-6.8,0-9.1,0c0,0-1.2,0-1.2-1.2c0-1.4,0-10.3,0-13.7c0-0.3,0-1,0.8-1c0.9,0,18.7,0,24.9,0
	c0.4,0,1.3,0,1.3,1c0,0.9,0,8.5,0,8.5"/>
<line class="st1" x1="12.8" y1="19.2" x2="5.5" y2="11.9"/>
<line class="st1" x1="7.8" y1="19.2" x2="12.8" y2="19.2"/>
<line class="st1" x1="12.8" y1="14.2" x2="12.8" y2="19.2"/>
<path class="st0" d="M31.9,30.5H17.1c-0.9,0-1.6-0.7-1.6-1.6v-6.8c0-0.9,0.7-1.6,1.6-1.6h14.8c0.9,0,1.6,0.7,1.6,1.6v6.7
	C33.5,29.7,32.8,30.5,31.9,30.5z"/>
</svg>
